<svg xmlns="http://www.w3.org/2000/svg" xmlns:xlink="http://www.w3.org/1999/xlink" version="1.1" width="2798.2062780269057" 
        height="3269.0582959641256" viewBox="0 0 2798.2062780269057 3269.0582959641256">
			<rect fill="#80a873" width="2798.2062780269057" height="3269.0582959641256"/>
			<g transform="scale(13.452914798206278) translate(10, 10)">
				<defs id="SvgjsDefs1013"></defs><g id="SvgjsG1014" featureKey="rootContainer" transform="matrix(1,0,0,1,0,0)" fill="#111111">    <path xmlns="http://www.w3.org/2000/svg" fill-rule="nonzero" d="             M0,0             H188             V223             H0,0             z             M4,4             v215             h180             v-215             z     "></path></g><g id="SvgjsG1015" featureKey="ECw45b-0" transform="matrix(0.26575686017997197,0,0,0.26575686017997197,26.473862365415563,21.634764045776446)" fill="#111111"><path xmlns="http://www.w3.org/2000/svg" d="M499.4,351.1l-2.8-2.6l6.5-27.4c17.9-76,0.4-154.7-48-215.9C406.6,44,334.1,8.9,256,8.9c-78.1,0-150.6,35.1-199.1,96.3  c-48.5,61.2-66,139.9-48,215.9l6.5,27.4l-2.8,2.6c-8.3,6.6-11.4,17.6-7.8,27.5l31,85.2c3.6,9.9,13.1,16.3,23,16.1l27.3,1.4  c7.9,14.3,26.8,27.4,49.9,19.3c30.4-10.6,28.1-42,24.4-52.3l-50.2-137.9c-5.8-16.1-27.2-33.4-52.3-24.4  c-19.3,6.9-29.9,27.2-25.8,46.8l-3,2.8l-4.3-18.3c-16.8-71.1-0.4-144.7,44.9-202C115,58.1,182.9,25.2,256,25.2  c73.1,0,141,32.9,186.3,90.1c45.3,57.3,61.7,130.9,44.9,202l-4.3,18.3l-3-2.8c4.2-19.6-6.4-39.8-25.8-46.8  c-25.1-9-46.4,8.3-52.3,24.4l-50.2,137.9c-3.7,10.2-6,41.6,24.4,52.3c23.1,8.1,42-4.9,49.9-19.3l27.3-1.4c9.9,0.2,19.4-6.2,23-16.1  l31-85.2C510.8,368.7,507.7,357.7,499.4,351.1z M63.4,301.4c14.1-5.2,27.8,5,31.4,14.6L145,453.9c2.2,6.1,5.3,24.2-14.6,31.4  c-12.5,4.5-26.9-2.3-31.4-14.6L48.8,332.7C44.2,320.1,50.8,306.1,63.4,301.4z M23.2,363.5l14.5-13.6l41.8,114.8L59,463.6  c-3.6,0-6.7-2.1-7.9-5.4l-31-85.2C18.9,369.8,19.9,366.1,23.2,363.5z M413,470.7c-4.5,12.3-18.9,19.1-31.4,14.6  c-20-7.2-16.9-25.2-14.6-31.4L417.2,316c3.5-9.6,17.2-19.8,31.4-14.6c12.7,4.7,19.2,18.7,14.6,31.4L413,470.7z M491.9,373.1  l-31,85.2c-1.2,3.3-4.3,5.3-7.9,5.4l-20.5,1.1l41.8-114.8l14.5,13.6C492.1,366.1,493.1,369.7,491.9,373.1z"></path></g><g id="SvgjsG1016" featureKey="6sJQsk-0" transform="matrix(1.6,0,0,1.6,40,167.00003051757812)" fill="#111111"><path d="M7.5 20 l-7.5 0 l0 -15 l7.36 0 l0 1.52 l-5.98 0 l0 5.16 l5.94 0 l0 1.3 l-5.94 0 l0 5.5 l6.12 0 l0 1.52 z M17.402 6.460000000000001 l-3.1 0 l0 13.54 l-1.48 0 l0 -13.54 l-3.1 0 l0 -1.46 l7.68 0 l0 1.46 z M27.224 20 l-7.5 0 l0 -15 l7.36 0 l0 1.52 l-5.98 0 l0 5.16 l5.94 0 l0 1.3 l-5.94 0 l0 5.5 l6.12 0 l0 1.52 z M38.346000000000004 20 l-1.72 -0.000019531 l-3.14 -6.06 l-2.6 0 l0 6.06 l-1.34 0 l0 -15 l3.44 0 c1.3733 0 2.46 0.39334 3.26 1.18 s1.2 1.8667 1.2 3.24 c0 0.42666 -0.05666 0.86 -0.17 1.3 s-0.27668 0.85334 -0.49002 1.24 s-0.47668 0.73666 -0.79002 1.05 s-0.67 0.55668 -1.07 0.73002 z M36.025999999999996 9.32 c0 -0.46666 -0.08 -0.88664 -0.24 -1.26 s-0.38 -0.69 -0.66 -0.95 s-0.61334 -0.46 -1 -0.6 s-0.80666 -0.21 -1.26 -0.21 l-1.98 0 l0 6.26 l2.1 0 c1.0667 0 1.84 -0.28666 2.32 -0.86 s0.72 -1.3667 0.72 -2.38 z M48.848 20 l-1.56 0 l-5.2 -11.8 l0 11.8 l-1.44 0 l0 -15 l1.44 0 l5.22 11.3 l0.12 -11.3 l1.42 0 l0 15 z M59.22999999999999 20 l-7.5 0 l0 -15 l7.36 0 l0 1.52 l-5.98 0 l0 5.16 l5.94 0 l0 1.3 l-5.94 0 l0 5.5 l6.12 0 l0 1.52 z M68.03199999999998 20 l-6.18 0 l0 -15 l1.4 0 l0 13.56 l4.78 0 l0 1.44 z"></path></g>
			</g>
		</svg>
